<svg width="406" height="280" viewBox="0 0 406 280" fill="none" xmlns="http://www.w3.org/2000/svg">
<g clip-path="url(#clip0_37_2117)">
<path d="M0 8.13403C0 3.71575 3.58172 0.134033 8 0.134033H398C402.418 0.134033 406 3.71576 406 8.13403V271.134C406 275.552 402.418 279.134 398 279.134H8.00001C3.58173 279.134 0 275.552 0 271.134V8.13403Z" fill="#F9FAFB"/>
<rect x="-56" y="13.134" width="74" height="74" rx="8" fill="#F7F7F7"/>
<rect x="18" y="13.134" width="74" height="74" rx="8" fill="white"/>
<g clip-path="url(#clip1_37_2117)">
<path d="M46.7881 47.0718H42.5926C42.2217 47.0718 41.866 47.2102 41.6037 47.4565C41.3414 47.7029 41.1941 48.037 41.1941 48.3854V60.2082C41.1941 60.905 41.4888 61.5733 42.0133 62.066C42.5379 62.5587 43.2493 62.8355 43.9911 62.8355H45.3896C46.1314 62.8355 46.8428 62.5587 47.3674 62.066C47.8919 61.5733 48.1866 60.905 48.1866 60.2082V48.3854C48.1866 48.037 48.0392 47.7029 47.777 47.4565C47.5147 47.2102 47.159 47.0718 46.7881 47.0718Z" fill="url(#paint0_linear_37_2117)"/>
<path d="M64.9042 47.0718H59.3746L61.5534 41.1604C61.6249 40.6194 61.4927 40.0721 61.1798 39.613C60.8668 39.154 60.3928 38.8123 59.8398 38.647C59.2869 38.4817 58.6898 38.5033 58.152 38.708C57.6141 38.9127 57.1695 39.2877 56.895 39.7679C55.2786 42.3591 53.2894 44.7285 50.9836 46.809V59.4016H51.143C54.0924 60.1675 57.997 61.5219 61.6122 61.5219C63.5701 61.5219 63.8386 60.8309 64.2413 59.7918L67.5334 50.5963C67.6869 50.1994 67.7363 49.7736 67.6775 49.355C67.6186 48.9363 67.4532 48.5372 67.1952 48.1914C66.9372 47.8456 66.5943 47.5632 66.1955 47.3684C65.7967 47.1735 65.3538 47.0717 64.9042 47.0718Z" fill="url(#paint1_linear_37_2117)"/>
</g>
<path d="M166 21.9699C166 17.09 169.956 13.134 174.836 13.134H231.164C236.044 13.134 240 17.09 240 21.9699V78.2982C240 83.1781 236.044 87.134 231.164 87.134H174.836C169.956 87.134 166 83.1781 166 78.2982V21.9699Z" fill="white"/>
<g clip-path="url(#clip2_37_2117)">
<path d="M215.6 47.4025C215.484 47.0252 215.269 46.6897 214.978 46.4344C214.688 46.179 214.335 46.0143 213.959 45.959L207.265 44.9442L204.271 38.6159C204.103 38.2607 203.843 37.9616 203.521 37.7525C203.198 37.5433 202.826 37.4325 202.447 37.4325C202.067 37.4325 201.695 37.5433 201.373 37.7525C201.051 37.9616 200.791 38.2607 200.623 38.6159L197.629 44.9442L190.935 45.959C190.559 46.0161 190.207 46.1816 189.917 46.4367C189.627 46.6918 189.411 47.0265 189.294 47.4028C189.177 47.7791 189.162 48.1821 189.253 48.5664C189.344 48.9506 189.536 49.3008 189.807 49.5773L194.652 54.5036L193.509 61.4582C193.443 61.8485 193.485 62.2501 193.627 62.6173C193.77 62.9845 194.008 63.3027 194.316 63.5355C194.623 63.7684 194.987 63.9067 195.366 63.9347C195.744 63.9627 196.123 63.8792 196.459 63.6938L202.447 60.4101L208.435 63.6938C208.771 63.8775 209.149 63.9596 209.527 63.9309C209.905 63.9022 210.268 63.7638 210.575 63.5313C210.882 63.2988 211.12 62.9815 211.263 62.6152C211.407 62.2489 211.449 61.8481 211.385 61.4582L210.241 54.5036L215.087 49.5759C215.36 49.3006 215.552 48.9506 215.643 48.5662C215.734 48.1817 215.719 47.7784 215.6 47.4025Z" fill="url(#paint2_linear_37_2117)"/>
</g>
<rect x="240" y="13.134" width="74" height="74" rx="8" fill="#F2F2F2"/>
<path d="M314 21.9699C314 17.09 317.956 13.134 322.836 13.134H379.164C384.044 13.134 388 17.09 388 21.9699V78.2982C388 83.1781 384.044 87.134 379.164 87.134H322.836C317.956 87.134 314 83.1781 314 78.2982V21.9699Z" fill="white"/>
<g clip-path="url(#clip3_37_2117)">
<path d="M345.809 49.9887C349.103 49.9887 351.773 47.1779 351.773 43.7106C351.773 40.2433 349.103 37.4325 345.809 37.4325C342.515 37.4325 339.845 40.2433 339.845 43.7106C339.845 47.1779 342.515 49.9887 345.809 49.9887Z" fill="url(#paint3_linear_37_2117)"/>
<path d="M347.797 51.3838H343.821C342.064 51.386 340.38 52.1217 339.137 53.4294C337.895 54.7371 337.196 56.5101 337.194 58.3594V62.5448C337.194 62.9148 337.334 63.2697 337.582 63.5313C337.831 63.793 338.168 63.94 338.519 63.94H353.099C353.45 63.94 353.787 63.793 354.036 63.5313C354.284 63.2697 354.424 62.9148 354.424 62.5448V58.3594C354.422 56.5101 353.723 54.7371 352.481 53.4294C351.238 52.1217 349.554 51.386 347.797 51.3838Z" fill="url(#paint4_linear_37_2117)"/>
<path d="M362.376 47.1984H359.725V44.4081C359.725 44.0381 359.586 43.6833 359.337 43.4216C359.089 43.16 358.752 43.013 358.4 43.013C358.049 43.013 357.711 43.16 357.463 43.4216C357.214 43.6833 357.075 44.0381 357.075 44.4081V47.1984H354.424C354.072 47.1984 353.735 47.3454 353.487 47.607C353.238 47.8687 353.099 48.2235 353.099 48.5935C353.099 48.9635 353.238 49.3184 353.487 49.58C353.735 49.8417 354.072 49.9887 354.424 49.9887H357.075V52.7789C357.075 53.1489 357.214 53.5038 357.463 53.7654C357.711 54.0271 358.049 54.1741 358.4 54.1741C358.752 54.1741 359.089 54.0271 359.337 53.7654C359.586 53.5038 359.725 53.1489 359.725 52.7789V49.9887H362.376C362.728 49.9887 363.065 49.8417 363.313 49.58C363.562 49.3184 363.702 48.9635 363.702 48.5935C363.702 48.2235 363.562 47.8687 363.313 47.607C363.065 47.3454 362.728 47.1984 362.376 47.1984Z" fill="url(#paint5_linear_37_2117)"/>
</g>
<rect x="20" y="-60.866" width="74" height="74" rx="8" fill="#F7F7F7"/>
<rect x="166" y="-60.866" width="74" height="74" rx="8" fill="#F2F2F2"/>
<rect x="312" y="-60.866" width="74" height="74" rx="8" fill="#F7F7F7"/>
<rect x="385" y="-60.866" width="74" height="74" rx="8" fill="#F7F7F7"/>
<rect x="-56" y="161.134" width="74" height="74" rx="8" fill="#F7F7F7"/>
<path d="M18 169.97C18 165.09 21.9559 161.134 26.8358 161.134H83.1642C88.0441 161.134 92 165.09 92 169.97V226.298C92 231.178 88.0441 235.134 83.1642 235.134H26.8358C21.9559 235.134 18 231.178 18 226.298V169.97Z" fill="white"/>
<g clip-path="url(#clip4_37_2117)">
<path d="M66.3391 186.576C66.3317 186.483 66.3134 186.391 66.2848 186.302C66.2473 186.213 66.1997 186.128 66.143 186.05C66.1177 185.997 66.0889 185.946 66.0569 185.896C66.0463 185.883 66.0303 185.879 66.0197 185.867C65.9498 185.798 65.8724 185.738 65.7891 185.686C65.7302 185.639 65.6678 185.597 65.6023 185.56C65.5286 185.533 65.4528 185.512 65.3757 185.497C65.2864 185.47 65.1945 185.451 65.1013 185.443C65.0841 185.442 65.0695 185.432 65.051 185.432H60.8008C60.4493 185.432 60.1122 185.572 59.8637 185.821C59.6152 186.069 59.4755 186.406 59.4755 186.758C59.4755 187.109 59.6152 187.446 59.8637 187.695C60.1122 187.944 60.4493 188.083 60.8008 188.083H61.4634L55.4308 193.252L50.7923 192.094C50.5944 192.044 50.3878 192.041 50.1885 192.085C49.9892 192.128 49.8026 192.217 49.6433 192.344L43.0169 197.646C42.7424 197.866 42.5664 198.185 42.5276 198.535C42.4888 198.884 42.5905 199.235 42.8102 199.509C43.0298 199.784 43.3496 199.96 43.699 199.999C44.0485 200.037 44.399 199.936 44.6735 199.716L50.7883 194.829L55.4533 195.996C55.6584 196.047 55.8727 196.048 56.0783 195.999C56.2839 195.951 56.475 195.854 56.6355 195.716L63.7257 189.638V191.008C63.7257 191.36 63.8653 191.697 64.1139 191.946C64.3624 192.194 64.6995 192.334 65.051 192.334C65.4025 192.334 65.7395 192.194 65.9881 191.946C66.2366 191.697 66.3762 191.36 66.3762 191.008V186.758C66.3686 186.696 66.3562 186.636 66.3391 186.576Z" fill="url(#paint6_linear_37_2117)"/>
<path d="M59.0872 197.361C57.6456 197.361 56.2363 197.788 55.0377 198.589C53.839 199.39 52.9047 200.529 52.353 201.861C51.8013 203.193 51.657 204.658 51.9382 206.073C52.2195 207.487 52.9137 208.785 53.9331 209.805C54.9525 210.824 56.2513 211.519 57.6652 211.8C59.0791 212.081 60.5447 211.937 61.8766 211.385C63.2085 210.833 64.3469 209.899 65.1478 208.7C65.9488 207.502 66.3762 206.092 66.3762 204.65C66.3762 202.717 65.6083 200.863 64.2413 199.496C62.8744 198.129 61.0204 197.361 59.0872 197.361ZM59.4053 203.446C60.4671 203.69 61.389 204.345 61.9697 205.267C62.1605 205.578 62.2864 205.924 62.3397 206.285C62.393 206.645 62.3726 207.013 62.2798 207.366C62.1477 207.809 61.9144 208.216 61.5984 208.554C61.2825 208.892 60.8924 209.152 60.4589 209.313C60.4429 209.636 60.307 209.942 60.0778 210.171C59.8485 210.399 59.5423 210.534 59.219 210.549C58.8956 210.564 58.5783 210.458 58.329 210.251C58.0797 210.045 57.9162 209.753 57.8706 209.432C57.1111 209.232 56.4298 208.807 55.9158 208.213C55.6904 207.943 55.5813 207.595 55.6128 207.244C55.6442 206.894 55.8135 206.57 56.0835 206.345C56.3534 206.119 56.7019 206.01 57.0522 206.042C57.4025 206.073 57.726 206.243 57.9515 206.513C58.1297 206.708 58.3647 206.842 58.6234 206.897C58.8103 206.968 59.0139 206.984 59.2095 206.941C59.405 206.899 59.584 206.801 59.7247 206.658C59.6175 206.494 59.4786 206.353 59.3161 206.244C59.1535 206.134 58.9707 206.059 58.7784 206.021C57.7167 205.777 56.795 205.122 56.2153 204.2C56.025 203.889 55.8996 203.542 55.8465 203.182C55.7934 202.821 55.8139 202.453 55.9066 202.1C56.0452 201.641 56.292 201.221 56.6264 200.877C56.9608 200.533 57.3729 200.274 57.8282 200.122V200.082C57.8282 199.73 57.9678 199.393 58.2164 199.145C58.4649 198.896 58.802 198.756 59.1535 198.756C59.505 198.756 59.8421 198.896 60.0906 199.145C60.3391 199.393 60.4788 199.73 60.4788 200.082C61.1634 200.292 61.7766 200.687 62.2507 201.224C62.3638 201.357 62.4497 201.511 62.5034 201.676C62.5572 201.842 62.5778 202.017 62.564 202.191C62.5502 202.365 62.5023 202.534 62.4231 202.689C62.3439 202.844 62.2348 202.983 62.1022 203.096C61.9696 203.209 61.816 203.295 61.6502 203.349C61.4844 203.402 61.3096 203.423 61.1358 203.409C60.9621 203.395 60.7927 203.347 60.6375 203.268C60.4822 203.189 60.3441 203.08 60.2309 202.947C60.0515 202.755 59.8168 202.622 59.559 202.568C59.3725 202.497 59.1693 202.481 58.9742 202.524C58.779 202.566 58.6005 202.665 58.4604 202.807C58.5676 202.971 58.7063 203.112 58.8686 203.221C59.0308 203.331 59.2133 203.407 59.4053 203.446Z" fill="url(#paint7_linear_37_2117)"/>
<path d="M49.1476 211.94C48.7962 211.94 48.4591 211.8 48.2105 211.552C47.962 211.303 47.8224 210.966 47.8224 210.615V202.662C47.8224 202.311 47.962 201.974 48.2105 201.725C48.4591 201.477 48.7962 201.337 49.1476 201.337C49.4991 201.337 49.8362 201.477 50.0847 201.725C50.3333 201.974 50.4729 202.311 50.4729 202.662V210.615C50.4729 210.966 50.3333 211.303 50.0847 211.552C49.8362 211.8 49.4991 211.94 49.1476 211.94Z" fill="url(#paint8_linear_37_2117)"/>
<path d="M43.8465 211.94C43.495 211.94 43.158 211.8 42.9094 211.552C42.6609 211.303 42.5212 210.966 42.5212 210.615V205.313C42.5212 204.962 42.6609 204.624 42.9094 204.376C43.158 204.127 43.495 203.988 43.8465 203.988C44.198 203.988 44.5351 204.127 44.7836 204.376C45.0322 204.624 45.1718 204.962 45.1718 205.313V210.615C45.1718 210.966 45.0322 211.303 44.7836 211.552C44.5351 211.8 44.198 211.94 43.8465 211.94Z" fill="url(#paint9_linear_37_2117)"/>
</g>
<path d="M166 169.97C166 165.09 169.956 161.134 174.836 161.134H231.164C236.044 161.134 240 165.09 240 169.97V226.298C240 231.178 236.044 235.134 231.164 235.134H174.836C169.956 235.134 166 231.178 166 226.298V169.97Z" fill="white"/>
<g clip-path="url(#clip5_37_2117)">
<path d="M213.516 189.492L202.913 185.516C202.614 185.405 202.285 185.405 201.985 185.516L191.382 189.492C191.129 189.586 190.911 189.756 190.756 189.978C190.602 190.2 190.52 190.463 190.52 190.734C190.557 194.881 191.598 198.957 193.553 202.615C195.508 206.272 198.319 209.403 201.745 211.738C201.956 211.87 202.199 211.94 202.448 211.94C202.696 211.94 202.94 211.87 203.15 211.738C206.577 209.403 209.388 206.272 211.343 202.615C213.298 198.957 214.338 194.881 214.376 190.734C214.376 190.464 214.294 190.2 214.14 189.978C213.987 189.756 213.769 189.586 213.516 189.492ZM208.686 195.647L202.06 202.274C201.811 202.522 201.474 202.662 201.123 202.662C201.079 202.662 201.036 202.662 200.99 202.656C200.795 202.636 200.607 202.574 200.439 202.473C200.271 202.372 200.127 202.235 200.018 202.072L197.368 198.096C197.271 197.951 197.204 197.789 197.17 197.618C197.136 197.447 197.136 197.272 197.171 197.101C197.205 196.93 197.272 196.768 197.369 196.623C197.466 196.479 197.59 196.354 197.735 196.258C197.88 196.161 198.042 196.094 198.213 196.06C198.384 196.026 198.559 196.027 198.73 196.061C198.901 196.095 199.063 196.162 199.208 196.259C199.352 196.356 199.477 196.48 199.573 196.625L201.327 199.257L206.811 193.773C207.061 193.531 207.396 193.398 207.743 193.401C208.091 193.404 208.423 193.543 208.669 193.789C208.915 194.035 209.054 194.367 209.057 194.715C209.06 195.062 208.927 195.397 208.685 195.647H208.686Z" fill="url(#paint10_linear_37_2117)"/>
</g>
<path d="M314 169.97C314 165.09 317.956 161.134 322.836 161.134H379.164C384.044 161.134 388 165.09 388 169.97V226.298C388 231.178 384.044 235.134 379.164 235.134H322.836C317.956 235.134 314 231.178 314 226.298V169.97Z" fill="white"/>
<g clip-path="url(#clip6_37_2117)">
<path d="M363.444 192.292C362.745 189.636 360.686 187.542 358.075 186.831C355.518 186.137 352.801 186.842 350.461 188.77C348.754 187.352 346.863 186.584 344.932 186.538C342.833 186.508 340.875 187.29 339.4 188.789C336.624 191.612 336.019 196.709 340.229 200.991L349.52 210.44C349.779 210.703 350.119 210.835 350.458 210.835C350.798 210.835 351.138 210.703 351.397 210.44L360.688 200.991C363.217 198.418 364.222 195.247 363.444 192.292Z" fill="url(#paint11_linear_37_2117)"/>
</g>
<rect x="-56" y="87.134" width="74" height="74" rx="8" fill="#F7F7F7"/>
<rect x="92" y="87.134" width="74" height="74" rx="8" fill="#F2F2F2"/>
<path d="M166 95.9699C166 91.09 169.956 87.134 174.836 87.134H231.164C236.044 87.134 240 91.09 240 95.9699V152.298C240 157.178 236.044 161.134 231.164 161.134H174.836C169.956 161.134 166 157.178 166 152.298V95.9699Z" fill="white"/>
<g clip-path="url(#clip7_37_2117)">
<path d="M214.339 112.576C214.332 112.483 214.313 112.391 214.285 112.302C214.247 112.213 214.2 112.128 214.143 112.05C214.118 111.997 214.089 111.946 214.057 111.896C214.046 111.883 214.03 111.879 214.02 111.867C213.95 111.798 213.872 111.738 213.789 111.686C213.73 111.639 213.668 111.597 213.602 111.56C213.529 111.533 213.453 111.512 213.376 111.497C213.286 111.47 213.194 111.451 213.101 111.443C213.084 111.442 213.07 111.432 213.051 111.432H208.801C208.449 111.432 208.112 111.572 207.864 111.821C207.615 112.069 207.476 112.406 207.476 112.758C207.476 113.109 207.615 113.446 207.864 113.695C208.112 113.944 208.449 114.083 208.801 114.083H209.463L203.431 119.252L198.792 118.094C198.594 118.044 198.388 118.041 198.188 118.085C197.989 118.128 197.803 118.217 197.643 118.344L191.017 123.646C190.742 123.866 190.566 124.185 190.528 124.535C190.489 124.884 190.59 125.235 190.81 125.509C191.03 125.784 191.35 125.96 191.699 125.999C192.048 126.037 192.399 125.936 192.674 125.716L198.788 120.829L203.453 121.996C203.658 122.047 203.873 122.048 204.078 121.999C204.284 121.951 204.475 121.854 204.635 121.716L211.726 115.638V117.008C211.726 117.36 211.865 117.697 212.114 117.946C212.362 118.194 212.699 118.334 213.051 118.334C213.402 118.334 213.74 118.194 213.988 117.946C214.237 117.697 214.376 117.36 214.376 117.008V112.758C214.369 112.696 214.356 112.636 214.339 112.576Z" fill="url(#paint12_linear_37_2117)"/>
<path d="M207.087 123.361C205.646 123.361 204.236 123.788 203.038 124.589C201.839 125.39 200.905 126.529 200.353 127.861C199.801 129.193 199.657 130.658 199.938 132.073C200.219 133.487 200.914 134.785 201.933 135.805C202.952 136.824 204.251 137.519 205.665 137.8C207.079 138.081 208.545 137.937 209.877 137.385C211.209 136.833 212.347 135.899 213.148 134.7C213.949 133.502 214.376 132.092 214.376 130.65C214.376 128.717 213.608 126.863 212.241 125.496C210.874 124.129 209.02 123.361 207.087 123.361ZM207.405 129.446C208.467 129.69 209.389 130.345 209.97 131.267C210.161 131.578 210.286 131.924 210.34 132.285C210.393 132.645 210.373 133.013 210.28 133.366C210.148 133.809 209.914 134.216 209.598 134.554C209.282 134.892 208.892 135.152 208.459 135.313C208.443 135.636 208.307 135.942 208.078 136.171C207.849 136.399 207.542 136.534 207.219 136.549C206.896 136.564 206.578 136.458 206.329 136.251C206.08 136.045 205.916 135.753 205.871 135.432C205.111 135.232 204.43 134.807 203.916 134.213C203.69 133.943 203.581 133.595 203.613 133.244C203.644 132.894 203.814 132.57 204.083 132.345C204.353 132.119 204.702 132.01 205.052 132.042C205.403 132.073 205.726 132.243 205.951 132.513C206.13 132.708 206.365 132.842 206.623 132.897C206.81 132.968 207.014 132.984 207.209 132.941C207.405 132.899 207.584 132.801 207.725 132.658C207.618 132.494 207.479 132.353 207.316 132.244C207.154 132.134 206.971 132.059 206.778 132.021C205.717 131.777 204.795 131.122 204.215 130.2C204.025 129.889 203.9 129.542 203.847 129.182C203.793 128.821 203.814 128.453 203.907 128.1C204.045 127.641 204.292 127.221 204.626 126.877C204.961 126.533 205.373 126.274 205.828 126.122V126.082C205.828 125.73 205.968 125.393 206.216 125.145C206.465 124.896 206.802 124.756 207.153 124.756C207.505 124.756 207.842 124.896 208.091 125.145C208.339 125.393 208.479 125.73 208.479 126.082C209.163 126.292 209.777 126.687 210.251 127.224C210.364 127.357 210.45 127.511 210.503 127.676C210.557 127.842 210.578 128.017 210.564 128.191C210.55 128.365 210.502 128.534 210.423 128.689C210.344 128.844 210.235 128.983 210.102 129.096C209.97 129.209 209.816 129.295 209.65 129.349C209.484 129.402 209.31 129.423 209.136 129.409C208.962 129.395 208.793 129.347 208.637 129.268C208.482 129.189 208.344 129.08 208.231 128.947C208.051 128.755 207.817 128.622 207.559 128.568C207.373 128.497 207.169 128.481 206.974 128.524C206.779 128.566 206.6 128.665 206.46 128.807C206.568 128.971 206.706 129.112 206.869 129.221C207.031 129.331 207.213 129.407 207.405 129.446Z" fill="url(#paint13_linear_37_2117)"/>
<path d="M197.148 137.94C196.796 137.94 196.459 137.8 196.211 137.552C195.962 137.303 195.822 136.966 195.822 136.615V128.662C195.822 128.311 195.962 127.974 196.211 127.725C196.459 127.477 196.796 127.337 197.148 127.337C197.499 127.337 197.836 127.477 198.085 127.725C198.333 127.974 198.473 128.311 198.473 128.662V136.615C198.473 136.966 198.333 137.303 198.085 137.552C197.836 137.8 197.499 137.94 197.148 137.94Z" fill="url(#paint14_linear_37_2117)"/>
<path d="M191.847 137.94C191.495 137.94 191.158 137.8 190.909 137.552C190.661 137.303 190.521 136.966 190.521 136.615V131.313C190.521 130.962 190.661 130.624 190.909 130.376C191.158 130.127 191.495 129.988 191.847 129.988C192.198 129.988 192.535 130.127 192.784 130.376C193.032 130.624 193.172 130.962 193.172 131.313V136.615C193.172 136.966 193.032 137.303 192.784 137.552C192.535 137.8 192.198 137.94 191.847 137.94Z" fill="url(#paint15_linear_37_2117)"/>
</g>
<rect x="314" y="87.134" width="74" height="74" rx="8" fill="#F2F2F2"/>
<rect x="388" y="87.134" width="74" height="74" rx="8" fill="#F7F7F7"/>
<rect x="-56" y="235.134" width="74" height="74" rx="8" fill="#F7F7F7"/>
<rect x="166" y="235.134" width="74" height="74" rx="8" fill="#F2F2F2"/>
<rect x="314" y="235.134" width="74" height="74" rx="8" fill="#F7F7F7"/>
<rect x="388" y="235.134" width="74" height="74" rx="8" fill="#F7F7F7"/>
</g>
<defs>
<linearGradient id="paint0_linear_37_2117" x1="50.0435" y1="40.5623" x2="62.6712" y2="49.8103" gradientUnits="userSpaceOnUse">
<stop stop-color="#3776F6"/>
<stop offset="1" stop-color="#204590"/>
</linearGradient>
<linearGradient id="paint1_linear_37_2117" x1="50.0435" y1="40.5623" x2="62.6712" y2="49.8103" gradientUnits="userSpaceOnUse">
<stop stop-color="#3776F6"/>
<stop offset="1" stop-color="#204590"/>
</linearGradient>
<linearGradient id="paint2_linear_37_2117" x1="198.043" y1="39.6419" x2="211.417" y2="48.6199" gradientUnits="userSpaceOnUse">
<stop stop-color="#3776F6"/>
<stop offset="1" stop-color="#204590"/>
</linearGradient>
<linearGradient id="paint3_linear_37_2117" x1="346.043" y1="39.6419" x2="359.417" y2="48.6199" gradientUnits="userSpaceOnUse">
<stop stop-color="#3776F6"/>
<stop offset="1" stop-color="#204590"/>
</linearGradient>
<linearGradient id="paint4_linear_37_2117" x1="346.043" y1="39.6419" x2="359.417" y2="48.6199" gradientUnits="userSpaceOnUse">
<stop stop-color="#3776F6"/>
<stop offset="1" stop-color="#204590"/>
</linearGradient>
<linearGradient id="paint5_linear_37_2117" x1="346.043" y1="39.6419" x2="359.417" y2="48.6199" gradientUnits="userSpaceOnUse">
<stop stop-color="#3776F6"/>
<stop offset="1" stop-color="#204590"/>
</linearGradient>
<linearGradient id="paint6_linear_37_2117" x1="50.484" y1="187.642" x2="63.2751" y2="195.37" gradientUnits="userSpaceOnUse">
<stop stop-color="#3776F6"/>
<stop offset="1" stop-color="#204590"/>
</linearGradient>
<linearGradient id="paint7_linear_37_2117" x1="50.484" y1="187.642" x2="63.2751" y2="195.37" gradientUnits="userSpaceOnUse">
<stop stop-color="#3776F6"/>
<stop offset="1" stop-color="#204590"/>
</linearGradient>
<linearGradient id="paint8_linear_37_2117" x1="50.484" y1="187.642" x2="63.2751" y2="195.37" gradientUnits="userSpaceOnUse">
<stop stop-color="#3776F6"/>
<stop offset="1" stop-color="#204590"/>
</linearGradient>
<linearGradient id="paint9_linear_37_2117" x1="50.484" y1="187.642" x2="63.2751" y2="195.37" gradientUnits="userSpaceOnUse">
<stop stop-color="#3776F6"/>
<stop offset="1" stop-color="#204590"/>
</linearGradient>
<linearGradient id="paint10_linear_37_2117" x1="198.484" y1="187.642" x2="211.275" y2="195.37" gradientUnits="userSpaceOnUse">
<stop stop-color="#3776F6"/>
<stop offset="1" stop-color="#204590"/>
</linearGradient>
<linearGradient id="paint11_linear_37_2117" x1="346.043" y1="188.562" x2="358.671" y2="197.81" gradientUnits="userSpaceOnUse">
<stop stop-color="#3776F6"/>
<stop offset="1" stop-color="#204590"/>
</linearGradient>
<linearGradient id="paint12_linear_37_2117" x1="198.484" y1="113.642" x2="211.275" y2="121.37" gradientUnits="userSpaceOnUse">
<stop stop-color="#3776F6"/>
<stop offset="1" stop-color="#204590"/>
</linearGradient>
<linearGradient id="paint13_linear_37_2117" x1="198.484" y1="113.642" x2="211.275" y2="121.37" gradientUnits="userSpaceOnUse">
<stop stop-color="#3776F6"/>
<stop offset="1" stop-color="#204590"/>
</linearGradient>
<linearGradient id="paint14_linear_37_2117" x1="198.484" y1="113.642" x2="211.275" y2="121.37" gradientUnits="userSpaceOnUse">
<stop stop-color="#3776F6"/>
<stop offset="1" stop-color="#204590"/>
</linearGradient>
<linearGradient id="paint15_linear_37_2117" x1="198.484" y1="113.642" x2="211.275" y2="121.37" gradientUnits="userSpaceOnUse">
<stop stop-color="#3776F6"/>
<stop offset="1" stop-color="#204590"/>
</linearGradient>
<clipPath id="clip0_37_2117">
<path d="M0 8.13403C0 3.71575 3.58172 0.134033 8 0.134033H398C402.418 0.134033 406 3.71576 406 8.13403V271.134C406 275.552 402.418 279.134 398 279.134H8.00001C3.58173 279.134 0 275.552 0 271.134V8.13403Z" fill="white"/>
</clipPath>
<clipPath id="clip1_37_2117">
<rect width="26.5075" height="26.5075" fill="white" transform="translate(41.1941 37.4325)"/>
</clipPath>
<clipPath id="clip2_37_2117">
<rect width="26.5075" height="26.5075" fill="white" transform="translate(189.194 37.4325)"/>
</clipPath>
<clipPath id="clip3_37_2117">
<rect width="26.5075" height="26.5075" fill="white" transform="translate(337.194 37.4325)"/>
</clipPath>
<clipPath id="clip4_37_2117">
<rect width="26.5075" height="26.5075" fill="white" transform="translate(41.1941 185.432)"/>
</clipPath>
<clipPath id="clip5_37_2117">
<rect width="26.5075" height="26.5075" fill="white" transform="translate(189.194 185.432)"/>
</clipPath>
<clipPath id="clip6_37_2117">
<rect width="26.5075" height="26.5075" fill="white" transform="translate(337.194 185.432)"/>
</clipPath>
<clipPath id="clip7_37_2117">
<rect width="26.5075" height="26.5075" fill="white" transform="translate(189.194 111.432)"/>
</clipPath>
</defs>
</svg>
