<svg width="540" height="280" viewBox="0 0 540 280" fill="none" xmlns="http://www.w3.org/2000/svg">
<g clip-path="url(#clip0_37_2104)">
<rect y="0.134033" width="540" height="279" rx="8" fill="#F9FAFB"/>
<rect x="30.5" y="-99.366" width="479" height="479" rx="239.5" stroke="#D1D5DB" stroke-dasharray="2 2"/>
<rect x="76.1001" y="-53.766" width="387.8" height="387.8" rx="193.9" stroke="#D1D5DB" stroke-dasharray="1.62 1.62"/>
<rect x="126.568" y="-3.29814" width="287.584" height="287.584" rx="143.792" stroke="#D1D5DB" stroke-width="1.1" stroke-dasharray="1.2 1.2"/>
<g filter="url(#filter0_dd_37_2104)">
<g clip-path="url(#clip1_37_2104)">
<rect x="192.118" y="62.2522" width="155.889" height="155.889" rx="77.9447" fill="white"/>
<path d="M270.046 73.2845C270.046 67.1815 275.018 62.1535 281.06 63.0158C297.429 65.352 312.737 72.854 324.668 84.5744C339.244 98.8924 347.615 118.361 347.979 138.79C348.344 159.218 340.673 178.973 326.617 193.802C312.561 208.631 293.245 217.348 272.826 218.076C252.408 218.805 232.519 211.488 217.442 197.699C202.365 183.91 193.304 164.752 192.211 144.35C191.118 123.947 198.08 103.931 211.598 88.6104C222.663 76.0691 237.398 67.4948 253.558 63.9975C259.523 62.7066 264.841 67.3673 265.276 73.4548C265.711 79.5423 261.074 84.7233 255.191 86.3468C244.811 89.2112 235.398 95.0407 228.17 103.233C218.486 114.209 213.498 128.55 214.281 143.167C215.064 157.785 221.555 171.51 232.357 181.39C243.159 191.269 257.409 196.512 272.038 195.989C286.667 195.467 300.506 189.222 310.577 178.598C320.647 167.973 326.143 153.82 325.882 139.184C325.621 124.548 319.623 110.599 309.18 100.341C301.387 92.6853 291.583 87.5417 281.025 85.4247C275.041 84.2247 270.046 79.3875 270.046 73.2845Z" fill="url(#paint0_linear_37_2104)"/>
<path d="M234.983 139.728V137.009C236.778 135.53 238.274 134.254 239.471 133.181C240.686 132.089 241.654 131.13 242.375 130.303C243.097 129.476 243.607 128.719 243.906 128.033C244.223 127.329 244.382 126.642 244.382 125.973C244.382 125.093 244.135 124.407 243.642 123.914C243.15 123.421 242.463 123.175 241.583 123.175C240.668 123.175 239.92 123.448 239.339 123.993C238.758 124.521 238.406 125.269 238.283 126.237H234.798C234.992 124.46 235.705 123.052 236.937 122.013C238.169 120.975 239.77 120.456 241.742 120.456C243.695 120.456 245.226 120.966 246.335 121.987C247.462 122.99 248.025 124.389 248.025 126.185C248.025 127.082 247.866 127.953 247.55 128.798C247.25 129.625 246.74 130.497 246.018 131.412C245.314 132.309 244.364 133.304 243.167 134.395C241.988 135.469 240.51 136.692 238.732 138.065L237.914 137.009H248.368V139.728H234.983ZM258.609 139.728V134.712L258.768 134.184V123.333L260.088 123.914L252.273 134.395L250.768 133.154H264.18V135.873H249.29V133.26L258.715 120.72H262.12V139.728H258.609ZM265.891 139.728V135.926H269.719V139.728H265.891ZM265.891 130.673V126.871H269.719V130.673H265.891ZM279.93 139.992C278.381 139.992 277.008 139.578 275.812 138.751C274.615 137.906 273.673 136.745 272.987 135.266C272.318 133.77 271.984 132.063 271.984 130.145C271.984 128.226 272.318 126.545 272.987 125.102C273.656 123.641 274.588 122.506 275.785 121.697C277 120.869 278.381 120.456 279.93 120.456C281.496 120.456 282.878 120.869 284.075 121.697C285.272 122.506 286.204 123.641 286.873 125.102C287.56 126.545 287.903 128.226 287.903 130.145C287.903 132.081 287.56 133.788 286.873 135.266C286.204 136.745 285.272 137.906 284.075 138.751C282.878 139.578 281.496 139.992 279.93 139.992ZM279.93 137.114C280.898 137.114 281.699 136.806 282.332 136.19C282.966 135.574 283.441 134.738 283.758 133.682C284.092 132.626 284.26 131.438 284.26 130.118C284.26 128.798 284.101 127.628 283.784 126.607C283.468 125.586 282.984 124.785 282.332 124.205C281.699 123.624 280.898 123.333 279.93 123.333C278.98 123.333 278.179 123.633 277.528 124.231C276.894 124.812 276.419 125.613 276.102 126.633C275.785 127.654 275.627 128.816 275.627 130.118C275.627 131.456 275.785 132.653 276.102 133.709C276.419 134.765 276.903 135.601 277.554 136.217C278.205 136.815 278.997 137.114 279.93 137.114ZM298.106 139.992C296.557 139.992 295.184 139.578 293.987 138.751C292.791 137.906 291.849 136.745 291.163 135.266C290.494 133.77 290.159 132.063 290.159 130.145C290.159 128.226 290.494 126.545 291.163 125.102C291.831 123.641 292.764 122.506 293.961 121.697C295.175 120.869 296.557 120.456 298.106 120.456C299.672 120.456 301.054 120.869 302.251 121.697C303.447 122.506 304.38 123.641 305.049 125.102C305.735 126.545 306.079 128.226 306.079 130.145C306.079 132.081 305.735 133.788 305.049 135.266C304.38 136.745 303.447 137.906 302.251 138.751C301.054 139.578 299.672 139.992 298.106 139.992ZM298.106 137.114C299.074 137.114 299.875 136.806 300.508 136.19C301.142 135.574 301.617 134.738 301.934 133.682C302.268 132.626 302.435 131.438 302.435 130.118C302.435 128.798 302.277 127.628 301.96 126.607C301.643 125.586 301.159 124.785 300.508 124.205C299.875 123.624 299.074 123.333 298.106 123.333C297.155 123.333 296.355 123.633 295.703 124.231C295.07 124.812 294.595 125.613 294.278 126.633C293.961 127.654 293.803 128.816 293.803 130.118C293.803 131.456 293.961 132.653 294.278 133.709C294.595 134.765 295.079 135.601 295.73 136.217C296.381 136.815 297.173 137.114 298.106 137.114Z" fill="black"/>
<path d="M256.535 162.408V149.736H258.823V162.408H256.535ZM264.824 162.408V149.736H267.112V162.408H264.824ZM257.626 154.91H265.863V156.706H257.626V154.91ZM269.376 162.408V153.432H271.541V155.597H271.593V162.408H269.376ZM271.593 157.726L271.365 155.597C271.576 154.834 271.934 154.253 272.438 153.854C272.943 153.456 273.547 153.256 274.251 153.256C274.497 153.256 274.673 153.28 274.779 153.326V155.421C274.72 155.397 274.638 155.386 274.533 155.386C274.427 155.374 274.298 155.368 274.145 155.368C273.289 155.368 272.649 155.556 272.227 155.931C271.805 156.307 271.593 156.905 271.593 157.726ZM279.511 162.584C278.267 162.584 277.276 162.326 276.537 161.81C275.797 161.282 275.393 160.554 275.322 159.627H277.346C277.405 160.085 277.622 160.431 277.997 160.666C278.373 160.9 278.877 161.018 279.511 161.018C280.086 161.018 280.514 160.93 280.796 160.754C281.089 160.566 281.236 160.302 281.236 159.962C281.236 159.715 281.154 159.516 280.989 159.363C280.825 159.199 280.514 159.064 280.057 158.958L278.613 158.624C277.628 158.413 276.894 158.084 276.413 157.638C275.944 157.181 275.709 156.612 275.709 155.931C275.709 155.098 276.026 154.447 276.66 153.978C277.305 153.497 278.191 153.256 279.317 153.256C280.432 153.256 281.324 153.497 281.993 153.978C282.673 154.447 283.049 155.098 283.119 155.931H281.095C281.036 155.568 280.849 155.292 280.532 155.104C280.227 154.916 279.804 154.822 279.265 154.822C278.76 154.822 278.379 154.905 278.121 155.069C277.862 155.221 277.733 155.45 277.733 155.755C277.733 155.99 277.833 156.189 278.033 156.354C278.232 156.506 278.566 156.641 279.036 156.758L280.585 157.11C281.465 157.31 282.127 157.656 282.573 158.149C283.031 158.642 283.26 159.222 283.26 159.891C283.26 160.748 282.931 161.411 282.274 161.88C281.617 162.349 280.696 162.584 279.511 162.584Z" fill="#9CA3AF"/>
</g>
</g>
</g>
<defs>
<filter id="filter0_dd_37_2104" x="172.118" y="62.2522" width="195.889" height="195.889" filterUnits="userSpaceOnUse" color-interpolation-filters="sRGB">
<feFlood flood-opacity="0" result="BackgroundImageFix"/>
<feColorMatrix in="SourceAlpha" type="matrix" values="0 0 0 0 0 0 0 0 0 0 0 0 0 0 0 0 0 0 127 0" result="hardAlpha"/>
<feOffset dy="10"/>
<feGaussianBlur stdDeviation="5"/>
<feColorMatrix type="matrix" values="0 0 0 0 0 0 0 0 0 0 0 0 0 0 0 0 0 0 0.04 0"/>
<feBlend mode="normal" in2="BackgroundImageFix" result="effect1_dropShadow_37_2104"/>
<feColorMatrix in="SourceAlpha" type="matrix" values="0 0 0 0 0 0 0 0 0 0 0 0 0 0 0 0 0 0 127 0" result="hardAlpha"/>
<feMorphology radius="5" operator="erode" in="SourceAlpha" result="effect2_dropShadow_37_2104"/>
<feOffset dy="20"/>
<feGaussianBlur stdDeviation="12.5"/>
<feColorMatrix type="matrix" values="0 0 0 0 0 0 0 0 0 0 0 0 0 0 0 0 0 0 0.1 0"/>
<feBlend mode="normal" in2="effect1_dropShadow_37_2104" result="effect2_dropShadow_37_2104"/>
<feBlend mode="normal" in="SourceGraphic" in2="effect2_dropShadow_37_2104" result="shape"/>
</filter>
<linearGradient id="paint0_linear_37_2104" x1="244.144" y1="75.2278" x2="322.794" y2="128.028" gradientUnits="userSpaceOnUse">
<stop stop-color="#3776F6"/>
<stop offset="1" stop-color="#204590"/>
</linearGradient>
<clipPath id="clip0_37_2104">
<rect y="0.134033" width="540" height="279" rx="8" fill="white"/>
</clipPath>
<clipPath id="clip1_37_2104">
<rect x="192.118" y="62.2522" width="155.889" height="155.889" rx="77.9447" fill="white"/>
</clipPath>
</defs>
</svg>
