<svg width="674" height="280" viewBox="0 0 674 280" fill="none" xmlns="http://www.w3.org/2000/svg">
<g clip-path="url(#clip0_37_2179)">
<rect y="0.134033" width="674" height="279" rx="8" fill="#F9FAFB"/>
<rect x="232.5" y="91.634" width="96" height="96" rx="7.5" fill="white"/>
<rect x="232.5" y="91.634" width="96" height="96" rx="7.5" stroke="#F3F4F6"/>
<g clip-path="url(#clip1_37_2179)">
<path d="M278.333 123.467C276.123 123.467 274.003 124.345 272.441 125.908C270.878 127.471 270 129.591 270 131.801C270 134.011 270.878 136.13 272.441 137.693C274.003 139.256 276.123 140.134 278.333 140.134C280.543 140.134 282.663 139.256 284.226 137.693C285.789 136.13 286.667 134.011 286.667 131.801C286.667 129.591 285.789 127.471 284.226 125.908C282.663 124.345 280.543 123.467 278.333 123.467ZM278.333 141.801C274.342 141.801 270.708 142.957 268.037 144.587C266.703 145.401 265.563 146.361 264.74 147.404C263.93 148.427 263.333 149.656 263.333 150.967C263.333 152.376 264.018 153.486 265.005 154.277C265.938 155.027 267.17 155.524 268.478 155.871C271.108 156.566 274.618 156.801 278.333 156.801L279.475 156.792C279.754 156.789 280.028 156.715 280.271 156.578C280.514 156.44 280.719 156.244 280.866 156.007C281.014 155.771 281.1 155.5 281.116 155.222C281.132 154.943 281.078 154.665 280.958 154.412C280.326 153.075 279.999 151.614 280 150.134C280 148.047 280.638 146.114 281.728 144.512C281.89 144.274 281.988 143.998 282.012 143.712C282.035 143.425 281.984 143.136 281.863 142.875C281.742 142.614 281.556 142.388 281.322 142.22C281.088 142.052 280.815 141.948 280.528 141.917C279.81 141.84 279.079 141.801 278.333 141.801ZM285.833 144.619C288.18 143.251 291.819 143.251 294.167 144.619C295.693 145.509 296.71 147.269 296.667 149.266C296.607 151.882 294.587 153.929 291.857 155.551C291.285 155.889 290.685 156.246 290 156.246C289.317 156.246 288.715 155.889 288.143 155.551C285.413 153.929 283.393 151.881 283.335 149.267C283.29 147.271 284.307 145.509 285.833 144.619Z" fill="url(#paint0_linear_37_2179)"/>
</g>
<rect x="119.5" y="91.634" width="96" height="96" rx="7.5" fill="white"/>
<rect x="119.5" y="91.634" width="96" height="96" rx="7.5" stroke="#F3F4F6"/>
<rect x="6" y="91.134" width="97" height="97" rx="8" fill="#F3F4F6"/>
<rect x="458" y="91.134" width="97" height="97" rx="8" fill="#F3F4F6"/>
<rect x="571.5" y="91.634" width="96" height="96" rx="7.5" fill="white"/>
<rect x="571.5" y="91.634" width="96" height="96" rx="7.5" stroke="#F3F4F6"/>
<rect x="232.5" y="204.634" width="96" height="96" rx="7.5" fill="white"/>
<rect x="232.5" y="204.634" width="96" height="96" rx="7.5" stroke="#F3F4F6"/>
<g clip-path="url(#clip2_37_2179)">
<path d="M278.333 236.467C276.123 236.467 274.003 237.345 272.441 238.908C270.878 240.471 270 242.591 270 244.801C270 247.011 270.878 249.13 272.441 250.693C274.003 252.256 276.123 253.134 278.333 253.134C280.543 253.134 282.663 252.256 284.226 250.693C285.789 249.13 286.667 247.011 286.667 244.801C286.667 242.591 285.789 240.471 284.226 238.908C282.663 237.345 280.543 236.467 278.333 236.467ZM278.333 254.801C274.342 254.801 270.708 255.957 268.037 257.587C266.703 258.401 265.563 259.361 264.74 260.404C263.93 261.427 263.333 262.656 263.333 263.967C263.333 265.376 264.018 266.486 265.005 267.277C265.938 268.027 267.17 268.524 268.478 268.871C271.108 269.566 274.618 269.801 278.333 269.801L279.475 269.792C279.754 269.789 280.028 269.715 280.271 269.577C280.514 269.44 280.719 269.244 280.866 269.007C281.014 268.77 281.1 268.5 281.116 268.222C281.132 267.943 281.078 267.665 280.958 267.412C280.326 266.075 279.999 264.613 280 263.134C280 261.047 280.638 259.114 281.728 257.512C281.89 257.274 281.988 256.998 282.012 256.711C282.035 256.424 281.984 256.136 281.863 255.875C281.742 255.614 281.556 255.388 281.322 255.22C281.088 255.052 280.815 254.948 280.528 254.917C279.81 254.84 279.079 254.801 278.333 254.801ZM285.833 257.619C288.18 256.251 291.819 256.251 294.167 257.619C295.693 258.509 296.71 260.269 296.667 262.266C296.607 264.882 294.587 266.929 291.857 268.551C291.285 268.889 290.685 269.246 290 269.246C289.317 269.246 288.715 268.889 288.143 268.551C285.413 266.929 283.393 264.881 283.335 262.267C283.29 260.271 284.307 258.509 285.833 257.619Z" fill="#D1D5DB"/>
</g>
<rect x="119" y="204.134" width="97" height="97" rx="8" fill="#F3F4F6"/>
<rect x="6.5" y="204.634" width="96" height="96" rx="7.5" fill="white"/>
<rect x="6.5" y="204.634" width="96" height="96" rx="7.5" stroke="#F3F4F6"/>
<g clip-path="url(#clip3_37_2179)">
<path fill-rule="evenodd" clip-rule="evenodd" d="M52.3333 236.467C50.1231 236.467 48.0035 237.345 46.4407 238.908C44.8779 240.471 43.9999 242.591 43.9999 244.801C43.9999 247.011 44.8779 249.13 46.4407 250.693C48.0035 252.256 50.1231 253.134 52.3333 253.134C54.5434 253.134 56.663 252.256 58.2258 250.693C59.7886 249.13 60.6666 247.011 60.6666 244.801C60.6666 242.591 59.7886 240.471 58.2258 238.908C56.663 237.345 54.5434 236.467 52.3333 236.467ZM52.3333 254.801C48.3416 254.801 44.7083 255.957 42.0366 257.587C40.7033 258.401 39.5633 259.361 38.7399 260.404C37.9299 261.427 37.3333 262.656 37.3333 263.967C37.3333 265.376 38.0183 266.486 39.0049 267.277C39.9383 268.027 41.1699 268.524 42.4783 268.871C45.1083 269.566 48.6183 269.801 52.3333 269.801C52.7177 269.801 53.0983 269.798 53.4749 269.792C53.754 269.789 54.0277 269.715 54.2709 269.577C54.514 269.44 54.7188 269.244 54.8665 269.007C55.0141 268.77 55.0999 268.5 55.1159 268.222C55.132 267.943 55.0778 267.665 54.9583 267.412C54.3263 266.075 53.999 264.613 53.9999 263.134C53.9999 261.047 54.6383 259.114 55.7283 257.512C55.8903 257.274 55.9879 256.998 56.0115 256.711C56.0352 256.424 55.9841 256.136 55.8632 255.875C55.7424 255.614 55.5559 255.388 55.3219 255.22C55.088 255.052 54.8145 254.948 54.5283 254.917C53.8105 254.84 53.0788 254.801 52.3333 254.801ZM65.4399 256.462C65.2932 256.211 65.083 256.002 64.8303 255.856C64.5777 255.711 64.2913 255.635 63.9999 255.635C63.7085 255.635 63.4222 255.711 63.1695 255.856C62.9168 256.002 62.7066 256.211 62.5599 256.462C61.5941 258.12 59.9751 259.297 58.0999 259.702C57.8149 259.764 57.5511 259.899 57.3348 260.095C57.1185 260.29 56.9572 260.539 56.8671 260.816C56.7771 261.094 56.7613 261.39 56.8215 261.675C56.8816 261.96 57.0156 262.225 57.2099 262.442C58.4883 263.874 59.1065 265.776 58.9133 267.686C58.8839 267.976 58.931 268.268 59.0501 268.534C59.1691 268.8 59.3558 269.031 59.5916 269.202C59.8274 269.373 60.104 269.48 60.3938 269.511C60.6836 269.542 60.9765 269.497 61.2433 269.379C62.9993 268.604 65.0005 268.604 66.7566 269.379C67.0233 269.497 67.3162 269.542 67.606 269.511C67.8959 269.48 68.1725 269.373 68.4082 269.202C68.644 269.031 68.8308 268.8 68.9498 268.534C69.0688 268.268 69.116 267.976 69.0866 267.686C68.8935 265.777 69.5115 263.873 70.7899 262.442C70.9843 262.225 71.1182 261.96 71.1784 261.675C71.2385 261.39 71.2228 261.094 71.1327 260.816C71.0426 260.539 70.8814 260.29 70.6651 260.095C70.4487 259.899 70.1849 259.764 69.8999 259.702C68.0247 259.297 66.4057 258.12 65.4399 256.462Z" fill="#D1D5DB"/>
</g>
<rect x="458.5" y="204.634" width="96" height="96" rx="7.5" fill="white"/>
<rect x="458.5" y="204.634" width="96" height="96" rx="7.5" stroke="#F3F4F6"/>
<g clip-path="url(#clip4_37_2179)">
<path fill-rule="evenodd" clip-rule="evenodd" d="M504.333 236.467C502.123 236.467 500.003 237.345 498.441 238.908C496.878 240.471 496 242.591 496 244.801C496 247.011 496.878 249.13 498.441 250.693C500.003 252.256 502.123 253.134 504.333 253.134C506.543 253.134 508.663 252.256 510.226 250.693C511.789 249.13 512.667 247.011 512.667 244.801C512.667 242.591 511.789 240.471 510.226 238.908C508.663 237.345 506.543 236.467 504.333 236.467ZM504.333 254.801C500.342 254.801 496.708 255.957 494.037 257.587C492.703 258.401 491.563 259.361 490.74 260.404C489.93 261.427 489.333 262.656 489.333 263.967C489.333 265.376 490.018 266.486 491.005 267.277C491.938 268.027 493.17 268.524 494.478 268.871C497.108 269.566 500.618 269.801 504.333 269.801C504.718 269.801 505.098 269.798 505.475 269.792C505.754 269.789 506.028 269.715 506.271 269.577C506.514 269.44 506.719 269.244 506.866 269.007C507.014 268.77 507.1 268.5 507.116 268.222C507.132 267.943 507.078 267.665 506.958 267.412C506.326 266.075 505.999 264.613 506 263.134C506 261.047 506.638 259.114 507.728 257.512C507.89 257.274 507.988 256.998 508.012 256.711C508.035 256.424 507.984 256.136 507.863 255.875C507.742 255.614 507.556 255.388 507.322 255.22C507.088 255.052 506.815 254.948 506.528 254.917C505.81 254.84 505.079 254.801 504.333 254.801ZM517.44 256.462C517.293 256.211 517.083 256.002 516.83 255.856C516.578 255.711 516.291 255.635 516 255.635C515.708 255.635 515.422 255.711 515.17 255.856C514.917 256.002 514.707 256.211 514.56 256.462C513.594 258.12 511.975 259.297 510.1 259.702C509.815 259.764 509.551 259.899 509.335 260.095C509.118 260.29 508.957 260.539 508.867 260.816C508.777 261.094 508.761 261.39 508.821 261.675C508.882 261.96 509.016 262.225 509.21 262.442C510.488 263.874 511.107 265.776 510.913 267.686C510.884 267.976 510.931 268.268 511.05 268.534C511.169 268.8 511.356 269.031 511.592 269.202C511.827 269.373 512.104 269.48 512.394 269.511C512.684 269.542 512.977 269.497 513.243 269.379C514.999 268.604 517.001 268.604 518.757 269.379C519.023 269.497 519.316 269.542 519.606 269.511C519.896 269.48 520.172 269.373 520.408 269.202C520.644 269.031 520.831 268.8 520.95 268.534C521.069 268.268 521.116 267.976 521.087 267.686C520.893 265.777 521.511 263.873 522.79 262.442C522.984 262.225 523.118 261.96 523.178 261.675C523.239 261.39 523.223 261.094 523.133 260.816C523.043 260.539 522.881 260.29 522.665 260.095C522.449 259.899 522.185 259.764 521.9 259.702C520.025 259.297 518.406 258.12 517.44 256.462Z" fill="#D1D5DB"/>
</g>
<rect x="571" y="204.134" width="97" height="97" rx="8" fill="#F3F4F6"/>
<rect x="232.5" y="-21.366" width="96" height="96" rx="7.5" fill="white"/>
<rect x="232.5" y="-21.366" width="96" height="96" rx="7.5" stroke="#F3F4F6"/>
<g clip-path="url(#clip5_37_2179)">
<path fill-rule="evenodd" clip-rule="evenodd" d="M278.333 10.4674C276.123 10.4674 274.003 11.3454 272.441 12.9082C270.878 14.471 270 16.5906 270 18.8007C270 21.0109 270.878 23.1305 272.441 24.6933C274.003 26.2561 276.123 27.1341 278.333 27.1341C280.543 27.1341 282.663 26.2561 284.226 24.6933C285.789 23.1305 286.667 21.0109 286.667 18.8007C286.667 16.5906 285.789 14.471 284.226 12.9082C282.663 11.3454 280.543 10.4674 278.333 10.4674ZM278.333 28.8007C274.342 28.8007 270.708 29.9574 268.037 31.5874C266.703 32.4007 265.563 33.3607 264.74 34.4041C263.93 35.4274 263.333 36.6557 263.333 37.9674C263.333 39.3757 264.018 40.4857 265.005 41.2774C265.938 42.0274 267.17 42.5241 268.478 42.8707C271.108 43.5657 274.618 43.8007 278.333 43.8007C278.718 43.8007 279.098 43.798 279.475 43.7924C279.754 43.7886 280.028 43.7147 280.271 43.5775C280.514 43.4404 280.719 43.2444 280.866 43.0074C281.014 42.7705 281.1 42.5003 281.116 42.2216C281.132 41.9429 281.078 41.6647 280.958 41.4124C280.326 40.0747 279.999 38.6135 280 37.1341C280 35.0474 280.638 33.1141 281.728 31.5124C281.89 31.2744 281.988 30.9985 282.012 30.7115C282.035 30.4246 281.984 30.1364 281.863 29.875C281.742 29.6137 281.556 29.3881 281.322 29.2203C281.088 29.0525 280.815 28.9481 280.528 28.9174C279.81 28.8396 279.079 28.8007 278.333 28.8007ZM291.44 30.4624C291.293 30.2106 291.083 30.0017 290.83 29.8565C290.578 29.7113 290.291 29.6349 290 29.6349C289.708 29.6349 289.422 29.7113 289.17 29.8565C288.917 30.0017 288.707 30.2106 288.56 30.4624C287.594 32.1202 285.975 33.2968 284.1 33.7024C283.815 33.764 283.551 33.8994 283.335 34.0949C283.118 34.2904 282.957 34.5392 282.867 34.8165C282.777 35.0938 282.761 35.3899 282.821 35.6752C282.882 35.9605 283.016 36.2251 283.21 36.4424C284.488 37.8736 285.107 39.7765 284.913 41.6857C284.884 41.9757 284.931 42.2684 285.05 42.5344C285.169 42.8005 285.356 43.0307 285.592 43.202C285.827 43.3734 286.104 43.4799 286.394 43.511C286.684 43.542 286.977 43.4966 287.243 43.3791C288.999 42.604 291.001 42.604 292.757 43.3791C293.023 43.4966 293.316 43.542 293.606 43.511C293.896 43.4799 294.172 43.3734 294.408 43.202C294.644 43.0307 294.831 42.8005 294.95 42.5344C295.069 42.2684 295.116 41.9757 295.087 41.6857C294.893 39.7771 295.511 37.8727 296.79 36.4424C296.984 36.2251 297.118 35.9605 297.178 35.6752C297.239 35.3899 297.223 35.0938 297.133 34.8165C297.043 34.5392 296.881 34.2904 296.665 34.0949C296.449 33.8994 296.185 33.764 295.9 33.7024C294.025 33.2968 292.406 32.1202 291.44 30.4624Z" fill="#D1D5DB"/>
</g>
<rect x="119" y="-21.866" width="97" height="97" rx="8" fill="#F3F4F6"/>
<rect x="6.5" y="-21.366" width="96" height="96" rx="7.5" fill="white"/>
<rect x="6.5" y="-21.366" width="96" height="96" rx="7.5" stroke="#F3F4F6"/>
<g clip-path="url(#clip6_37_2179)">
<path d="M52.3333 10.4674C50.1231 10.4674 48.0035 11.3454 46.4407 12.9082C44.8779 14.471 43.9999 16.5906 43.9999 18.8007C43.9999 21.0109 44.8779 23.1305 46.4407 24.6933C48.0035 26.2561 50.1231 27.1341 52.3333 27.1341C54.5434 27.1341 56.663 26.2561 58.2258 24.6933C59.7886 23.1305 60.6666 21.0109 60.6666 18.8007C60.6666 16.5906 59.7886 14.471 58.2258 12.9082C56.663 11.3454 54.5434 10.4674 52.3333 10.4674ZM52.3333 28.8007C48.3416 28.8007 44.7083 29.9574 42.0366 31.5874C40.7033 32.4007 39.5633 33.3607 38.7399 34.4041C37.9299 35.4274 37.3333 36.6557 37.3333 37.9674C37.3333 39.3757 38.0183 40.4857 39.0049 41.2774C39.9383 42.0274 41.1699 42.5241 42.4783 42.8707C45.1083 43.5657 48.6183 43.8007 52.3333 43.8007L53.4749 43.7924C53.754 43.7886 54.0277 43.7147 54.2709 43.5775C54.514 43.4404 54.7188 43.2444 54.8665 43.0074C55.0141 42.7705 55.0999 42.5003 55.1159 42.2216C55.132 41.9429 55.0778 41.6647 54.9583 41.4124C54.3263 40.0747 53.999 38.6135 53.9999 37.1341C53.9999 35.0474 54.6383 33.1141 55.7283 31.5124C55.8903 31.2744 55.9879 30.9985 56.0115 30.7115C56.0352 30.4246 55.9841 30.1364 55.8632 29.875C55.7424 29.6137 55.5559 29.3881 55.3219 29.2203C55.088 29.0525 54.8145 28.9481 54.5283 28.9174C53.8105 28.8396 53.0788 28.8007 52.3333 28.8007ZM59.8333 31.6191C62.1805 30.2506 65.8194 30.2506 68.1666 31.6191C69.6933 32.5091 70.7099 34.2691 70.6666 36.2657C70.6066 38.8824 68.5866 40.9291 65.8566 42.5507C65.2849 42.8891 64.6849 43.2457 63.9999 43.2457C63.3166 43.2457 62.7149 42.8891 62.1433 42.5507C59.4132 40.9291 57.3933 38.8807 57.3349 36.2674C57.2899 34.2707 58.3066 32.5091 59.8333 31.6191Z" fill="#D1D5DB"/>
</g>
<rect x="458.5" y="-21.366" width="96" height="96" rx="7.5" fill="white"/>
<rect x="458.5" y="-21.366" width="96" height="96" rx="7.5" stroke="#F3F4F6"/>
<g clip-path="url(#clip7_37_2179)">
<path d="M504.333 10.4674C502.123 10.4674 500.003 11.3454 498.441 12.9082C496.878 14.471 496 16.5906 496 18.8007C496 21.0109 496.878 23.1305 498.441 24.6933C500.003 26.2561 502.123 27.1341 504.333 27.1341C506.543 27.1341 508.663 26.2561 510.226 24.6933C511.789 23.1305 512.667 21.0109 512.667 18.8007C512.667 16.5906 511.789 14.471 510.226 12.9082C508.663 11.3454 506.543 10.4674 504.333 10.4674ZM504.333 28.8007C500.342 28.8007 496.708 29.9574 494.037 31.5874C492.703 32.4007 491.563 33.3607 490.74 34.4041C489.93 35.4274 489.333 36.6557 489.333 37.9674C489.333 39.3757 490.018 40.4857 491.005 41.2774C491.938 42.0274 493.17 42.5241 494.478 42.8707C497.108 43.5657 500.618 43.8007 504.333 43.8007L505.475 43.7924C505.754 43.7886 506.028 43.7147 506.271 43.5775C506.514 43.4404 506.719 43.2444 506.866 43.0074C507.014 42.7705 507.1 42.5003 507.116 42.2216C507.132 41.9429 507.078 41.6647 506.958 41.4124C506.326 40.0747 505.999 38.6135 506 37.1341C506 35.0474 506.638 33.1141 507.728 31.5124C507.89 31.2744 507.988 30.9985 508.012 30.7115C508.035 30.4246 507.984 30.1364 507.863 29.875C507.742 29.6137 507.556 29.3881 507.322 29.2203C507.088 29.0525 506.815 28.9481 506.528 28.9174C505.81 28.8396 505.079 28.8007 504.333 28.8007ZM511.833 31.6191C514.18 30.2506 517.819 30.2506 520.167 31.6191C521.693 32.5091 522.71 34.2691 522.667 36.2657C522.607 38.8824 520.587 40.9291 517.857 42.5507C517.285 42.8891 516.685 43.2457 516 43.2457C515.317 43.2457 514.715 42.8891 514.143 42.5507C511.413 40.9291 509.393 38.8807 509.335 36.2674C509.29 34.2707 510.307 32.5091 511.833 31.6191Z" fill="#D1D5DB"/>
</g>
<rect x="571" y="-21.866" width="97" height="97" rx="8" fill="#F3F4F6"/>
<rect x="345.5" y="91.634" width="96" height="96" rx="7.5" fill="white"/>
<rect x="345.5" y="91.634" width="96" height="96" rx="7.5" stroke="#F3F4F6"/>
<g clip-path="url(#clip8_37_2179)">
<path fill-rule="evenodd" clip-rule="evenodd" d="M391.333 123.467C389.123 123.467 387.003 124.345 385.441 125.908C383.878 127.471 383 129.591 383 131.801C383 134.011 383.878 136.13 385.441 137.693C387.003 139.256 389.123 140.134 391.333 140.134C393.543 140.134 395.663 139.256 397.226 137.693C398.789 136.13 399.667 134.011 399.667 131.801C399.667 129.591 398.789 127.471 397.226 125.908C395.663 124.345 393.543 123.467 391.333 123.467ZM391.333 141.801C387.342 141.801 383.708 142.957 381.037 144.587C379.703 145.401 378.563 146.361 377.74 147.404C376.93 148.427 376.333 149.656 376.333 150.967C376.333 152.376 377.018 153.486 378.005 154.277C378.938 155.027 380.17 155.524 381.478 155.871C384.108 156.566 387.618 156.801 391.333 156.801C391.718 156.801 392.098 156.798 392.475 156.792C392.754 156.789 393.028 156.715 393.271 156.578C393.514 156.44 393.719 156.244 393.866 156.007C394.014 155.771 394.1 155.5 394.116 155.222C394.132 154.943 394.078 154.665 393.958 154.412C393.326 153.075 392.999 151.614 393 150.134C393 148.047 393.638 146.114 394.728 144.512C394.89 144.274 394.988 143.998 395.012 143.712C395.035 143.425 394.984 143.136 394.863 142.875C394.742 142.614 394.556 142.388 394.322 142.22C394.088 142.052 393.815 141.948 393.528 141.917C392.81 141.84 392.079 141.801 391.333 141.801ZM404.44 143.462C404.293 143.211 404.083 143.002 403.83 142.857C403.578 142.711 403.291 142.635 403 142.635C402.708 142.635 402.422 142.711 402.17 142.857C401.917 143.002 401.707 143.211 401.56 143.462C400.594 145.12 398.975 146.297 397.1 146.702C396.815 146.764 396.551 146.899 396.335 147.095C396.118 147.29 395.957 147.539 395.867 147.817C395.777 148.094 395.761 148.39 395.821 148.675C395.882 148.961 396.016 149.225 396.21 149.442C397.488 150.874 398.107 152.776 397.913 154.686C397.884 154.976 397.931 155.268 398.05 155.534C398.169 155.8 398.356 156.031 398.592 156.202C398.827 156.373 399.104 156.48 399.394 156.511C399.684 156.542 399.977 156.497 400.243 156.379C401.999 155.604 404.001 155.604 405.757 156.379C406.023 156.497 406.316 156.542 406.606 156.511C406.896 156.48 407.172 156.373 407.408 156.202C407.644 156.031 407.831 155.8 407.95 155.534C408.069 155.268 408.116 154.976 408.087 154.686C407.893 152.777 408.511 150.873 409.79 149.442C409.984 149.225 410.118 148.961 410.178 148.675C410.239 148.39 410.223 148.094 410.133 147.817C410.043 147.539 409.881 147.29 409.665 147.095C409.449 146.899 409.185 146.764 408.9 146.702C407.025 146.297 405.406 145.12 404.44 143.462Z" fill="url(#paint1_linear_37_2179)"/>
</g>
<rect x="345" y="204.134" width="97" height="97" rx="8" fill="#F3F4F6"/>
<rect x="345" y="-21.866" width="97" height="97" rx="8" fill="#F3F4F6"/>
</g>
<defs>
<linearGradient id="paint0_linear_37_2179" x1="274.462" y1="126.246" x2="291.279" y2="137.536" gradientUnits="userSpaceOnUse">
<stop stop-color="#3776F6"/>
<stop offset="1" stop-color="#204590"/>
</linearGradient>
<linearGradient id="paint1_linear_37_2179" x1="387.644" y1="126.246" x2="404.564" y2="137.791" gradientUnits="userSpaceOnUse">
<stop stop-color="#3776F6"/>
<stop offset="1" stop-color="#204590"/>
</linearGradient>
<clipPath id="clip0_37_2179">
<rect y="0.134033" width="674" height="279" rx="8" fill="white"/>
</clipPath>
<clipPath id="clip1_37_2179">
<rect width="40" height="40" fill="white" transform="translate(260 120.134)"/>
</clipPath>
<clipPath id="clip2_37_2179">
<rect width="40" height="40" fill="white" transform="translate(260 233.134)"/>
</clipPath>
<clipPath id="clip3_37_2179">
<rect width="40" height="40" fill="white" transform="translate(34 233.134)"/>
</clipPath>
<clipPath id="clip4_37_2179">
<rect width="40" height="40" fill="white" transform="translate(486 233.134)"/>
</clipPath>
<clipPath id="clip5_37_2179">
<rect width="40" height="40" fill="white" transform="translate(260 7.13403)"/>
</clipPath>
<clipPath id="clip6_37_2179">
<rect width="40" height="40" fill="white" transform="translate(34 7.13403)"/>
</clipPath>
<clipPath id="clip7_37_2179">
<rect width="40" height="40" fill="white" transform="translate(486 7.13403)"/>
</clipPath>
<clipPath id="clip8_37_2179">
<rect width="40" height="40" fill="white" transform="translate(373 120.134)"/>
</clipPath>
</defs>
</svg>
